<svg width="1462" height="532" viewBox="0 0 1462 532" fill="none" xmlns="http://www.w3.org/2000/svg">
<path d="M0 361.33L30.5396 358.262C61.2416 354.958 122.321 348.821 183.237 336.077C244.154 323.568 304.908 304.688 365.825 308.936C426.742 313.42 487.821 340.797 548.737 351.181C609.654 361.33 670.408 354.249 731.325 352.597C792.242 351.181 853.321 354.958 914.237 341.741C975.154 328.289 1035.91 297.608 1096.82 284.155C1157.74 270.939 1218.82 274.715 1279.74 292.416C1340.65 310.116 1401.41 341.741 1431.62 357.318L1462 373.13V531.255H1431.62C1401.41 531.255 1340.65 531.255 1279.74 531.255C1218.82 531.255 1157.74 531.255 1096.82 531.255C1035.91 531.255 975.154 531.255 914.237 531.255C853.321 531.255 792.242 531.255 731.325 531.255C670.408 531.255 609.654 531.255 548.737 531.255C487.821 531.255 426.742 531.255 365.825 531.255C304.908 531.255 244.154 531.255 183.237 531.255C122.321 531.255 61.2416 531.255 30.5396 531.255H0V361.33Z" fill="url(#paint0_linear_91_96)"/>
<path d="M0 470.458L30.5396 459.729C61.2416 449.001 122.321 427.543 183.237 419.854C244.154 411.986 304.908 418.066 365.825 420.39C426.742 422.715 487.821 421.642 548.737 428.437C609.654 435.232 670.408 450.252 731.325 449.895C792.242 449.537 853.321 434.159 914.237 427.007C975.154 419.854 1035.91 420.927 1096.82 418.066C1157.74 415.026 1218.82 407.874 1279.74 415.384C1340.65 422.715 1401.41 444.888 1431.62 455.796L1462 466.882V531.255H1431.62C1401.41 531.255 1340.65 531.255 1279.74 531.255C1218.82 531.255 1157.74 531.255 1096.82 531.255C1035.91 531.255 975.154 531.255 914.237 531.255C853.321 531.255 792.242 531.255 731.325 531.255C670.408 531.255 609.654 531.255 548.737 531.255C487.821 531.255 426.742 531.255 365.825 531.255C304.908 531.255 244.154 531.255 183.237 531.255C122.321 531.255 61.2416 531.255 30.5396 531.255H0V470.458Z" fill="url(#paint1_linear_91_96)"/>
<defs>
<linearGradient id="paint0_linear_91_96" x1="731" y1="276.255" x2="731" y2="531.255" gradientUnits="userSpaceOnUse">
<stop offset="0.0885417" stop-color="#165EA4"/>
<stop offset="0.489583" stop-color="#1E76CB" stop-opacity="0.714286"/>
<stop offset="1" stop-color="#1E76CB" stop-opacity="0"/>
</linearGradient>
<linearGradient id="paint1_linear_91_96" x1="731" y1="412.063" x2="731" y2="531.255" gradientUnits="userSpaceOnUse">
<stop offset="0.0885417" stop-color="#165EA4"/>
<stop offset="0.489583" stop-color="#1E76CB" stop-opacity="0.714286"/>
<stop offset="1" stop-color="#1E76CB" stop-opacity="0"/>
</linearGradient>
</defs>
</svg>
