<?xml version="1.0" encoding="utf-8"?>
<svg width="1616.84" height="1505" viewBox="0 0 1616.84 1505" fill="none" xmlns="http://www.w3.org/2000/svg">
  <path d="M494.749 63C410.463 99.9807 358.683 101.779 274.4 63C241.241 113.365 207.664 129.366 119.909 159.55C30.628 277.942 38.8036 340.541 12 454.879L153.985 528.711C170.286 476.914 187.06 443.802 194.047 398.085C229.556 487.086 216.871 536.741 218.502 625.26C201.841 761.339 176.341 794.549 153.985 994.421C146.174 1145.34 182.382 1352.22 182.382 1352.22H341.405V994.421C347.765 951.251 346.439 931.597 386.195 925.918C430.805 930.101 438.155 956.523 437.955 994.421V1352.22H602.658C615.819 1207.05 621.593 1127 619.696 994.421C603.032 830.331 558.196 688.033 551.543 625.26C544.89 562.488 585.619 398.085 585.619 398.085L636.734 528.711L767.36 454.879C747.376 344.654 721.925 199.306 653.772 159.55C585.619 119.794 547.387 122.299 494.749 63Z" fill="white" stroke="#133C65" stroke-width="20" />
  <path d="M222.138 613.902C354.61 686.521 424.917 679.591 545.863 613.902" stroke="#133C65" stroke-width="20" />
  <path d="M159.664 1125.05C236.927 1075.01 278.008 1053.71 341.405 1045.54M159.664 1125.05C236.927 1075.01 278.008 1053.71 341.405 1045.54" stroke="#133C65" stroke-width="20" />
  <path d="M619.696 1119.37C544.848 1072.91 505.05 1053.13 443.635 1045.54M619.696 1119.37C544.848 1072.91 505.05 1053.13 443.635 1045.54" stroke="#133C65" stroke-width="20" />
  <g clip-path="url(#clip0_120_433)">
    <path d="M1026.44 506.491C1145.16 300.852 1375.38 165.782 1505.11 140.175C1523.38 136.57 1532.52 134.767 1547.11 143.193C1561.71 151.619 1564.71 160.432 1570.73 178.058C1613.42 303.21 1611.55 570.12 1492.83 775.759C1382.54 966.786 1192.09 1171.72 1066.72 1298.02C1051.98 1312.86 1044.61 1320.28 1037.67 1323.63C1017.9 1333.15 993.621 1326.69 981.197 1308.6C976.835 1302.25 974.074 1291.95 968.553 1271.35C963.302 1251.75 960.675 1241.94 956.421 1234.45C944.375 1213.24 921.794 1200.2 897.397 1200.38C888.781 1200.44 878.981 1203.06 859.38 1208.32C838.776 1213.84 828.473 1216.6 820.792 1215.99C798.917 1214.28 781.182 1196.48 779.547 1174.6C778.973 1166.92 781.716 1156.82 787.203 1136.64C833.889 964.916 916.146 697.517 1026.44 506.491Z" fill="white" stroke="#133C65" stroke-width="20" stroke-linecap="round" stroke-linejoin="round" />
    <path d="M1587.42 435.289C1491.14 786.092 1069.25 598.146 880.738 863.089" stroke="#133C65" stroke-width="20" stroke-linecap="round" stroke-linejoin="round" />
    <path d="M1014.51 1065.69L1050.7 1003.01" stroke="#133C65" stroke-width="20" stroke-linecap="round" stroke-linejoin="round" />
  </g>
  <defs>
    <clipPath id="clip0_120_433">
      <rect x="443.241" y="317.969" width="1228.37" height="1228.37" transform="rotate(-15 443.241 317.969)" fill="white" />
    </clipPath>
  </defs>
</svg>