<svg width="1440" height="464" viewBox="0 0 1440 464" fill="none" xmlns="http://www.w3.org/2000/svg">
<path d="M-22 110L8.53955 115.007C39.2416 120.192 100.321 130.206 161.237 127.881C222.154 125.557 282.908 110.536 343.825 111.788C404.742 113.04 465.821 130.206 526.737 130.563C587.654 130.921 648.408 114.113 709.325 113.934C770.242 113.576 831.321 129.669 892.237 141.65C953.154 153.452 1013.91 161.319 1074.82 169.902C1135.74 178.485 1196.82 124.663 1257.74 130.563C1318.65 136.464 1379.41 202.446 1409.62 203.519L1440 204.771V532H1409.62C1379.41 532 1318.65 532 1257.74 532C1196.82 532 1135.74 532 1074.82 532C1013.91 532 953.154 532 892.237 532C831.321 532 770.242 532 709.325 532C648.408 532 587.654 532 526.737 532C465.821 532 404.742 532 343.825 532C282.908 532 222.154 532 161.237 532C100.321 532 39.2416 532 8.53955 532H-22V110Z" fill="url(#paint0_linear_91_96)"/>
<path d="M-22 41.4682L8.53955 55.297C39.2416 69.3867 100.321 97.0443 161.237 87.1293C222.154 77.2143 282.908 29.2049 343.825 6.24384C404.742 -16.7172 465.821 38.598 526.737 55.297C587.654 71.735 648.408 49.2958 709.325 66.2557C770.242 83.2155 863.583 77.9971 924.5 87.1293C985.417 96.2616 1053 94.957 1135 41.4682C1195.92 25.552 1208.58 3.63463 1269.5 6.24384C1330.42 8.85305 1379.41 98.088 1409.62 124.441L1440 151.055V532H1409.62C1379.41 532 1318.65 532 1257.74 532C1196.82 532 1135.74 532 1074.82 532C1013.91 532 953.154 532 892.237 532C831.321 532 770.242 532 709.325 532C648.408 532 587.654 532 526.737 532C465.821 532 404.742 532 343.825 532C282.908 532 222.154 532 161.237 532C100.321 532 39.2416 532 8.53955 532H-22V41.4682Z" fill="url(#paint1_linear_91_96)"/>
<path d="M-22 267.356L8.53955 261.991C39.2416 256.627 100.321 245.898 161.237 241.964C222.154 238.209 282.908 241.07 343.825 255.733C404.742 270.396 465.821 296.503 526.737 301.33C587.654 306.158 648.408 289.35 709.325 287.383C770.242 285.237 831.321 297.754 892.237 298.291C953.154 299.006 1013.91 287.562 1074.82 287.562C1135.74 287.562 1196.82 299.006 1257.74 296.502C1318.65 294.178 1379.41 278.085 1409.62 270.038L1440 261.991V532H1409.62C1379.41 532 1318.65 532 1257.74 532C1196.82 532 1135.74 532 1074.82 532C1013.91 532 953.154 532 892.237 532C831.321 532 770.242 532 709.325 532C648.408 532 587.654 532 526.737 532C465.821 532 404.742 532 343.825 532C282.908 532 222.154 532 161.237 532C100.321 532 39.2416 532 8.53955 532H-22V267.356Z" fill="url(#paint2_linear_91_96)"/>
<path d="M-22 403.254L8.53955 400.93C39.2416 398.426 100.321 393.777 161.237 384.121C222.154 374.644 282.908 360.339 343.825 363.558C404.742 366.955 465.821 387.697 526.737 395.565C587.654 403.254 648.408 397.89 709.325 396.638C770.242 395.565 831.321 398.426 892.237 388.413C953.154 378.22 1013.91 354.974 1074.82 344.782C1135.74 334.769 1196.82 337.63 1257.74 351.041C1318.65 364.452 1379.41 388.413 1409.62 400.214L1440 412.195V532H1409.62C1379.41 532 1318.65 532 1257.74 532C1196.82 532 1135.74 532 1074.82 532C1013.91 532 953.154 532 892.237 532C831.321 532 770.242 532 709.325 532C648.408 532 587.654 532 526.737 532C465.821 532 404.742 532 343.825 532C282.908 532 222.154 532 161.237 532C100.321 532 39.2416 532 8.53955 532H-22V403.254Z" fill="url(#paint3_linear_91_96)"/>
<path d="M-22 471.203L8.53955 460.474C39.2416 449.746 100.321 428.288 161.237 420.599C222.154 412.731 282.908 418.811 343.825 421.135C404.742 423.46 465.821 422.387 526.737 429.182C587.654 435.977 648.408 450.997 709.325 450.64C770.242 450.282 831.321 434.904 892.237 427.752C953.154 420.599 1013.91 421.672 1074.82 418.811C1135.74 415.771 1196.82 408.619 1257.74 416.129C1318.65 423.46 1379.41 445.633 1409.62 456.54L1440 467.627V532H1409.62C1379.41 532 1318.65 532 1257.74 532C1196.82 532 1135.74 532 1074.82 532C1013.91 532 953.154 532 892.237 532C831.321 532 770.242 532 709.325 532C648.408 532 587.654 532 526.737 532C465.821 532 404.742 532 343.825 532C282.908 532 222.154 532 161.237 532C100.321 532 39.2416 532 8.53955 532H-22V471.203Z" fill="url(#paint4_linear_91_96)"/>
<defs>
<linearGradient id="paint0_linear_91_96" x1="709" y1="110" x2="709" y2="532" gradientUnits="userSpaceOnUse">
<stop offset="0.0885417" stop-color="#1E76CB"/>
<stop offset="0.489583" stop-color="#1E76CB" stop-opacity="0.714286"/>
<stop offset="1" stop-color="#1E76CB" stop-opacity="0"/>
</linearGradient>
<linearGradient id="paint1_linear_91_96" x1="709" y1="0.744995" x2="709" y2="532" gradientUnits="userSpaceOnUse">
<stop offset="0.0885417" stop-color="#1E76CB"/>
<stop offset="0.489583" stop-color="#1E76CB" stop-opacity="0.714286"/>
<stop offset="1" stop-color="#1E76CB" stop-opacity="0"/>
</linearGradient>
<linearGradient id="paint2_linear_91_96" x1="709" y1="240.468" x2="709" y2="532" gradientUnits="userSpaceOnUse">
<stop offset="0.0885417" stop-color="#1E76CB"/>
<stop offset="0.489583" stop-color="#1E76CB" stop-opacity="0.714286"/>
<stop offset="1" stop-color="#1E76CB" stop-opacity="0"/>
</linearGradient>
<linearGradient id="paint3_linear_91_96" x1="709" y1="338.796" x2="709" y2="532" gradientUnits="userSpaceOnUse">
<stop offset="0.0885417" stop-color="#1E76CB"/>
<stop offset="0.489583" stop-color="#1E76CB" stop-opacity="0.714286"/>
<stop offset="1" stop-color="#1E76CB" stop-opacity="0"/>
</linearGradient>
<linearGradient id="paint4_linear_91_96" x1="709" y1="412.808" x2="709" y2="532" gradientUnits="userSpaceOnUse">
<stop offset="0.0885417" stop-color="#1E76CB"/>
<stop offset="0.489583" stop-color="#1E76CB" stop-opacity="0.714286"/>
<stop offset="1" stop-color="#1E76CB" stop-opacity="0"/>
</linearGradient>
</defs>
</svg>
